<svg width="32" height="33" viewBox="0 0 32 33" fill="none" xmlns="http://www.w3.org/2000/svg">
<path d="M27.2812 5.19578C25.827 3.73428 24.095 2.57549 22.186 1.78701C20.2771 0.998532 18.2295 0.59614 16.1626 0.603304C7.50244 0.603304 0.444271 7.62616 0.444271 16.243C0.444271 19.0048 1.17388 21.6877 2.53793 24.0549L0.317383 32.1667L8.64443 29.9888C10.9443 31.2356 13.5296 31.8984 16.1626 31.8984C24.8227 31.8984 31.8809 24.8756 31.8809 16.2587C31.8809 12.0766 30.2472 8.14696 27.2812 5.19578ZM16.1626 29.2471C13.8151 29.2471 11.5153 28.6158 9.50093 27.4322L9.0251 27.1481L4.07645 28.4422L5.39292 23.6446L5.0757 23.1554C3.77152 21.0832 3.07901 18.6879 3.07721 16.243C3.07721 9.07808 8.94579 3.23885 16.1467 3.23885C19.6361 3.23885 22.9194 4.59607 25.3778 7.05802C26.5951 8.26368 27.5598 9.69776 28.216 11.2771C28.8722 12.8565 29.2068 14.5498 29.2004 16.2587C29.2321 23.4236 23.3635 29.2471 16.1626 29.2471ZM23.3318 19.5256C22.9352 19.3362 21.0002 18.3893 20.6512 18.2472C20.2864 18.121 20.0327 18.0579 19.763 18.4366C19.4934 18.8312 18.7479 19.7149 18.5259 19.9674C18.3038 20.2357 18.0659 20.2673 17.6694 20.0621C17.2728 19.8728 16.004 19.4467 14.513 18.121C13.3393 17.0794 12.5621 15.8011 12.3242 15.4065C12.1021 15.012 12.2925 14.8068 12.4987 14.6017C12.6731 14.4281 12.8952 14.144 13.0855 13.9231C13.2759 13.7021 13.3552 13.5285 13.4821 13.276C13.6089 13.0077 13.5455 12.7868 13.4503 12.5974C13.3552 12.408 12.5621 10.4826 12.2449 9.69356C11.9277 8.93604 11.5946 9.03073 11.3567 9.01495H10.5953C10.3257 9.01495 9.91332 9.10964 9.54851 9.50418C9.19957 9.89873 8.18446 10.8456 8.18446 12.771C8.18446 14.6964 9.5961 16.5586 9.78643 16.8111C9.97676 17.0794 12.5621 21.0248 16.4957 22.7135C17.4315 23.1238 18.1611 23.3605 18.7321 23.5341C19.6679 23.834 20.5244 23.7866 21.2064 23.6919C21.9677 23.5815 23.538 22.745 23.8552 21.8297C24.1883 20.9144 24.1883 20.141 24.0772 19.9674C23.9662 19.7939 23.7283 19.7149 23.3318 19.5256Z" fill="#F8F8F8"/>
</svg>
