<svg width="32" height="33" viewBox="0 0 32 33" fill="none" xmlns="http://www.w3.org/2000/svg">
<path d="M28.7688 9.149C29.3698 11.4926 29.3698 16.3849 29.3698 16.3849C29.3698 16.3849 29.3698 21.2773 28.7688 23.6209C28.4347 24.9163 27.4576 25.9355 26.22 26.2801C23.9724 26.9061 16.2184 26.9061 16.2184 26.9061C16.2184 26.9061 8.4682 26.9061 6.21667 26.2801C4.97386 25.9303 3.99802 24.9123 3.66792 23.6209C3.06689 21.2773 3.06689 16.3849 3.06689 16.3849C3.06689 16.3849 3.06689 11.4926 3.66792 9.149C4.00196 7.85358 4.97912 6.83435 6.21667 6.48978C8.4682 5.86377 16.2184 5.86377 16.2184 5.86377C16.2184 5.86377 23.9724 5.86377 26.22 6.48978C27.4628 6.83961 28.4387 7.85753 28.7688 9.149ZM13.5881 20.9879L21.4789 16.3849L13.5881 11.7819V20.9879Z" fill="#F8F8F8"/>
</svg>
